<?xml version="1.0" encoding="UTF-8" standalone="no"?>
<!DOCTYPE svg PUBLIC "-//W3C//DTD SVG 1.1//EN" "http://www.w3.org/Graphics/SVG/1.1/DTD/svg11.dtd">
<svg xmlns="http://www.w3.org/2000/svg" version="1.1" xmlns:dc="http://purl.org/dc/elements/1.1/" xmlns:xl="http://www.w3.org/1999/xlink" viewBox="318.4521 60.158854 314.3458 107.17969" width="314.3458" height="107.17969">
  <defs/>
  <g id="Canvas_1" stroke-dasharray="none" stroke-opacity="1" stroke="none" fill-opacity="1" fill="none">
    <title>Canvas 1</title>
    <g id="Canvas_1_Layer_1">
      <title>Layer 1</title>
      <g id="Group_529">
        <g id="Graphic_528">
          <path d="M 360.73943 61.21387 C 362.2137 61.0309 363.85942 61.33702 365.2987 61.65189 C 371.7521 63.062845 378.0645 65.1847 384.43183 66.92697 L 395.68065 70.04801 C 397.43376 70.5497 399.50874 70.96357 401.1352 71.78048 C 401.97485 72.2024 402.5269 73.104325 403.01287 73.8691 C 402.9548 83.90743 402.87922 93.9797 403.0916 104.01558 C 403.192 108.74874 403.36727 113.45392 403.3998 118.18778 C 403.41765 120.78788 403.50126 123.374 403.1969 125.96256 C 402.79 129.27427 401.8363 132.49571 400.37463 135.495 C 394.71366 147.15875 380.8413 158.02204 369.2202 163.46995 C 367.06233 164.48172 364.80718 165.24475 362.55937 166.02737 C 362.1581 166.1005 361.7561 166.16871 361.35343 166.23239 C 360.6656 166.3398 360.05302 166.41536 359.3743 166.2051 C 357.6499 165.67017 355.9167 164.57023 354.32453 163.72604 C 349.3692 161.09794 344.5993 158.4744 340.07537 155.14135 C 330.0811 147.77834 321.51794 138.6017 319.9713 125.72151 C 319.45605 121.43022 319.77312 116.8412 319.77592 112.50861 L 319.7829 87.81844 C 319.77774 83.34207 320.12182 78.53544 319.4521 74.1091 C 319.61824 73.865605 319.7899 73.626305 319.967 73.3905 C 320.61112 72.54561 321.3531 71.99599 322.3387 71.6066 C 324.87464 70.603925 327.65108 70.02597 330.2886 69.33151 C 333.3715 68.50796 336.44774 67.65956 339.517 66.78633 C 344.19944 65.48383 348.89026 64.21246 353.5895 62.97188 C 355.9279 62.35474 358.3503 61.54448 360.73943 61.21387 Z" fill="#02274c"/>
          <path d="M 360.73943 61.21387 C 362.2137 61.0309 363.85942 61.33702 365.2987 61.65189 C 371.7521 63.062845 378.0645 65.1847 384.43183 66.92697 L 395.68065 70.04801 C 397.43376 70.5497 399.50874 70.96357 401.1352 71.78048 C 401.97485 72.2024 402.5269 73.104325 403.01287 73.8691 C 402.9548 83.90743 402.87922 93.9797 403.0916 104.01558 C 403.192 108.74874 403.36727 113.45392 403.3998 118.18778 C 403.41765 120.78788 403.50126 123.374 403.1969 125.96256 C 402.79 129.27427 401.8363 132.49571 400.37463 135.495 C 394.71366 147.15875 380.8413 158.02204 369.2202 163.46995 C 367.06233 164.48172 364.80718 165.24475 362.55937 166.02737 C 362.1581 166.1005 361.7561 166.16871 361.35343 166.23239 C 360.6656 166.3398 360.05302 166.41536 359.3743 166.2051 C 357.6499 165.67017 355.9167 164.57023 354.32453 163.72604 C 349.3692 161.09794 344.5993 158.4744 340.07537 155.14135 C 330.0811 147.77834 321.51794 138.6017 319.9713 125.72151 C 319.45605 121.43022 319.77312 116.8412 319.77592 112.50861 L 319.7829 87.81844 C 319.77774 83.34207 320.12182 78.53544 319.4521 74.1091 C 319.61824 73.865605 319.7899 73.626305 319.967 73.3905 C 320.61112 72.54561 321.3531 71.99599 322.3387 71.6066 C 324.87464 70.603925 327.65108 70.02597 330.2886 69.33151 C 333.3715 68.50796 336.44774 67.65956 339.517 66.78633 C 344.19944 65.48383 348.89026 64.21246 353.5895 62.97188 C 355.9279 62.35474 358.3503 61.54448 360.73943 61.21387 Z" stroke="#ff9800" stroke-linecap="butt" stroke-linejoin="round" stroke-width="2"/>
        </g>
        <g id="Graphic_527">
          <path d="M 360.5862 87.09145 C 360.9637 87.06906 361.3419 87.05296 361.72007 87.04317 C 364.16694 86.98614 366.64845 87.69529 368.411 89.46415 C 370.6812 91.74309 371.04785 94.82355 370.9814 97.86797 C 369.08798 97.68884 367.18058 97.35788 365.2945 97.10214 C 365.20496 95.88185 365.07376 94.35719 364.15155 93.45387 C 363.52846 92.84303 362.3792 92.51802 361.52485 92.52641 C 360.72754 92.53446 360.04323 92.86752 359.5146 93.45982 C 357.2836 95.95882 358.0823 101.40533 358.1785 104.5652 C 359.7406 103.33932 361.29675 102.42375 363.34864 102.43355 C 365.18187 102.43985 366.93533 103.18538 368.21124 104.50188 C 371.6867 108.04309 371.0146 113.59036 370.9835 118.12725 C 371.01707 121.05132 371.1577 123.90123 369.4777 126.4737 C 368.21614 128.40523 366.0257 130.00756 363.73488 130.41654 C 361.12182 130.8829 358.15052 130.3896 355.9846 128.8282 C 354.3046 127.61771 353.16687 125.89609 352.8345 123.85155 C 352.2296 120.13156 352.59976 113.05439 352.6001 108.93102 C 352.6001 104.83739 352.24815 98.87519 352.79217 95.04745 C 353.03252 93.35521 353.4898 91.94566 354.54144 90.56059 C 356.08184 88.53144 358.1089 87.46649 360.5862 87.09145 Z" fill="#ff9800"/>
        </g>
        <g id="Graphic_526">
          <path d="M 361.10643 107.70303 C 361.71937 107.6768 362.36065 107.6747 362.92217 107.95633 C 363.85837 108.42548 364.47936 109.48588 364.7778 110.45463 C 365.42327 112.5492 365.5041 121.4778 364.46747 123.2456 C 363.8776 124.25213 363.0572 124.67195 361.9737 124.99277 C 361.36987 124.95708 360.81185 124.87452 360.25314 124.62647 C 359.5314 124.306 358.881 123.73365 358.6036 122.98006 C 357.9329 121.15838 357.67262 111.07142 358.53116 109.49638 C 359.09548 108.46117 360.0387 108.05813 361.10643 107.70303 Z" fill="#02274c"/>
        </g>
        <g id="Graphic_525">
          <path d="M 375.37483 87.39617 L 391.12277 87.39862 L 391.1231 92.64921 L 379.96 92.66111 C 379.5874 95.71392 379.49505 98.81922 379.20642 101.88393 C 381.1551 100.93268 383.24373 100.45303 385.41666 100.6556 C 387.217 100.82318 388.70563 101.59565 389.8584 102.99366 C 392.75833 106.51004 392.2052 111.57171 392.208 115.81053 C 392.20906 117.97927 392.34095 120.25261 392.08836 122.40875 C 391.79623 124.9025 390.6396 127.28116 388.60207 128.81071 C 386.35287 130.4991 383.659 130.7587 380.9669 130.41444 C 379.1151 130.0436 377.38964 129.27217 376.07594 127.87975 C 373.67665 125.33737 373.55035 122.07919 373.63536 118.79512 C 375.4917 118.88224 377.35185 119.2216 379.1907 119.48678 C 379.2435 120.65214 379.282 121.72304 379.78123 122.80479 C 380.1853 123.68012 380.82204 124.55335 381.7733 124.87382 C 382.57516 125.14355 383.45854 124.94169 384.19603 124.57959 C 385.06996 124.15102 385.77176 123.51289 386.0401 122.5536 C 386.64185 120.402 386.53724 112.12028 386.20453 109.74128 C 386.094 108.95201 385.88547 108.16414 385.4877 107.46828 C 385.07486 106.74689 384.45037 106.1175 383.62157 105.91633 C 382.7179 105.69663 381.62706 106.04753 380.86823 106.54047 C 379.56222 107.38887 379.2911 108.846 378.9535 110.25346 C 377.3375 109.78886 375.7023 109.37498 374.07863 108.93697 C 374.115 105.96531 374.3669 102.97127 374.538 100.00347 C 374.77973 95.80209 374.9942 91.58776 375.37483 87.39617 Z" fill="#ff9800"/>
        </g>
        <g id="Graphic_524">
          <path d="M 338.57485 87.10054 C 338.87922 87.075 339.1892 87.07011 339.49426 87.05926 C 342.03035 86.97075 344.52935 87.46789 346.4147 89.30322 C 348.59814 91.42822 349.14986 94.54541 349.13166 97.46739 C 349.10787 101.25384 348.0062 103.91273 345.29657 106.56076 C 345.79407 106.9442 346.2618 107.36473 346.6953 107.81919 C 350.0007 111.31002 349.43883 117.10463 349.2996 121.53027 C 349.21843 124.11289 348.34344 126.51043 346.38497 128.26739 C 344.3831 130.06354 341.72073 130.77899 339.07724 130.58972 C 336.7028 130.42004 334.399 129.49957 332.8586 127.62961 C 330.8529 125.19568 330.63634 121.87383 330.88683 118.86264 L 334.9189 119.50707 C 335.2488 119.5459 335.80296 119.5599 336.0944 119.69949 C 336.53766 119.91115 336.71013 123.30263 337.55853 124.14822 C 338.15747 124.74577 339.0503 124.85598 339.85706 124.85772 C 340.7978 124.85947 341.71758 124.6695 342.3921 123.9663 C 343.9619 122.32934 343.4735 118.79127 343.48154 116.66837 C 343.48853 114.78511 343.689 112.10034 342.20387 110.69778 C 340.8482 109.41801 338.81625 109.5723 337.09602 109.57965 L 337.08657 103.84835 C 338.59654 103.8627 340.6033 104.04672 341.89985 103.1441 C 342.6055 102.65256 342.96585 101.86714 343.117 101.04043 C 343.3745 99.63123 343.4644 94.89737 342.66673 93.80163 C 342.13006 93.06484 341.24353 92.70939 340.3598 92.62962 C 339.45193 92.54775 338.4664 92.78006 337.7751 93.3979 C 336.38897 94.63708 336.54745 97.35228 336.50302 99.04417 C 334.60647 98.8661 332.80717 98.3819 331.02117 97.73432 C 330.84905 95.17025 331.14782 92.0807 332.7701 89.99837 C 334.23317 88.12036 336.3071 87.42241 338.57485 87.10054 Z" fill="#ff9800"/>
        </g>
        <g id="Graphic_523">
          <path d="M 552.03974 118.48585 C 554.2312 118.34591 556.4986 118.44667 558.6964 118.44772 C 565.1435 118.45052 572.1878 118.42148 577.3278 122.95313 C 580.4737 125.72641 582.1397 129.39952 582.4007 133.56976 C 582.768 139.441 581.561 143.58116 577.6374 147.9823 C 570.1268 154.0743 561.0922 152.82532 552.0499 152.80713 Z M 559.38735 146.37193 C 563.7549 146.33765 568.64306 146.82114 572.0478 143.53113 C 574.4296 140.59026 575.0828 137.20788 574.70216 133.48615 C 574.4492 131.01409 573.4154 128.83135 571.4814 127.22973 C 568.0014 124.34764 563.76716 124.6842 559.542 124.6625 C 559.38735 129.65071 559.38665 134.62142 559.39925 139.61312 C 559.40484 141.77556 559.6784 144.24448 559.38735 146.37193 Z" fill="#02274c"/>
          <path d="M 552.03974 118.48585 C 554.2312 118.34591 556.4986 118.44667 558.6964 118.44772 C 565.1435 118.45052 572.1878 118.42148 577.3278 122.95313 C 580.4737 125.72641 582.1397 129.39952 582.4007 133.56976 C 582.768 139.441 581.561 143.58116 577.6374 147.9823 C 570.1268 154.0743 561.0922 152.82532 552.0499 152.80713 Z M 559.38735 146.37193 C 563.7549 146.33765 568.64306 146.82114 572.0478 143.53113 C 574.4296 140.59026 575.0828 137.20788 574.70216 133.48615 C 574.4492 131.01409 573.4154 128.83135 571.4814 127.22973 C 568.0014 124.34764 563.76716 124.6842 559.542 124.6625 C 559.38735 129.65071 559.38665 134.62142 559.39925 139.61312 C 559.40484 141.77556 559.6784 144.24448 559.38735 146.37193 Z" stroke="black" stroke-linecap="butt" stroke-linejoin="round" stroke-width=".5"/>
        </g>
        <g id="Graphic_522">
          <path d="M 484.156 73.4003 C 490.2529 73.44648 501.36354 72.459196 506.48573 75.23073 C 508.8644 76.51784 510.49015 78.60576 511.2553 81.19712 C 512.13096 84.16353 511.90985 87.29821 510.3677 90.01062 C 509.09913 92.24198 506.738 94.01434 504.26207 94.66751 C 506.95803 98.28359 510.49715 104.15483 512.43813 108.19633 L 506.3465 108.25755 C 505.53833 108.32647 504.66825 108.25895 503.85344 108.25755 C 502.1171 104.99237 498.66897 98.864 497.67224 95.57013 C 495.63224 95.7727 493.56286 95.67334 491.5169 95.61316 C 491.4956 99.7995 491.5071 103.98585 491.5519 108.17184 C 489.1145 108.2621 486.62073 108.06513 484.1987 108.36985 Z M 491.5229 89.49599 C 495.36776 89.53167 499.2511 90.0652 502.6524 87.92864 C 503.54907 86.81926 504.2589 85.73017 504.133 84.23105 C 504.03046 83.01111 503.45286 81.82196 502.50616 81.03934 C 499.9701 78.94267 494.68834 79.64483 491.5159 79.68296 C 491.48754 82.95374 491.49 86.22486 491.5229 89.49599 Z" fill="#02274c"/>
          <path d="M 484.156 73.4003 C 490.2529 73.44648 501.36354 72.459196 506.48573 75.23073 C 508.8644 76.51784 510.49015 78.60576 511.2553 81.19712 C 512.13096 84.16353 511.90985 87.29821 510.3677 90.01062 C 509.09913 92.24198 506.738 94.01434 504.26207 94.66751 C 506.95803 98.28359 510.49715 104.15483 512.43813 108.19633 L 506.3465 108.25755 C 505.53833 108.32647 504.66825 108.25895 503.85344 108.25755 C 502.1171 104.99237 498.66897 98.864 497.67224 95.57013 C 495.63224 95.7727 493.56286 95.67334 491.5169 95.61316 C 491.4956 99.7995 491.5071 103.98585 491.5519 108.17184 C 489.1145 108.2621 486.62073 108.06513 484.1987 108.36985 Z M 491.5229 89.49599 C 495.36776 89.53167 499.2511 90.0652 502.6524 87.92864 C 503.54907 86.81926 504.2589 85.73017 504.133 84.23105 C 504.03046 83.01111 503.45286 81.82196 502.50616 81.03934 C 499.9701 78.94267 494.68834 79.64483 491.5159 79.68296 C 491.48754 82.95374 491.49 86.22486 491.5229 89.49599 Z" stroke="black" stroke-linecap="butt" stroke-linejoin="round" stroke-width=".5"/>
        </g>
        <g id="Graphic_521">
          <path d="M 519.523 118.48725 C 524.7082 118.47431 535.2062 117.77285 539.8085 119.49483 C 542.5447 120.51815 544.95627 122.33179 546.1353 125.08338 C 547.40873 128.05678 547.3734 131.03998 546.1213 134.00393 C 544.8835 136.93465 542.5115 138.47155 539.7046 139.62537 C 541.2632 141.80285 547.0393 150.51699 547.47626 152.56223 L 547.24185 152.7494 L 547.46576 152.76165 C 545.2897 153.16993 541.64806 152.7424 539.2316 152.84456 C 537.15 149.59198 534.56423 144.05031 533.0438 140.44053 C 530.9807 140.36916 528.91166 140.5126 526.8524 140.32787 C 527.37825 142.34967 527.2348 150.4862 526.95003 152.54649 L 526.70654 152.84001 C 524.3167 152.70462 521.8936 152.81657 519.49677 152.75255 C 519.6052 148.92376 519.5216 145.07713 519.5286 141.24624 Z M 527.00636 134.32615 C 530.1421 134.30375 534.9113 134.96743 537.53343 133.07787 C 538.477 132.39636 539.1858 131.5763 539.39395 130.3966 C 539.5944 129.26027 539.3009 127.93713 538.633 126.99533 C 537.6622 125.62565 535.98534 125.01026 534.38196 124.7874 C 531.9435 124.44875 529.3521 124.70904 526.8867 124.63662 C 526.9203 127.86506 527.0998 131.09665 527.00636 134.32615 Z" fill="#02274c"/>
          <path d="M 519.523 118.48725 C 524.7082 118.47431 535.2062 117.77285 539.8085 119.49483 C 542.5447 120.51815 544.95627 122.33179 546.1353 125.08338 C 547.40873 128.05678 547.3734 131.03998 546.1213 134.00393 C 544.8835 136.93465 542.5115 138.47155 539.7046 139.62537 C 541.2632 141.80285 547.0393 150.51699 547.47626 152.56223 L 547.24185 152.7494 L 547.46576 152.76165 C 545.2897 153.16993 541.64806 152.7424 539.2316 152.84456 C 537.15 149.59198 534.56423 144.05031 533.0438 140.44053 C 530.9807 140.36916 528.91166 140.5126 526.8524 140.32787 C 527.37825 142.34967 527.2348 150.4862 526.95003 152.54649 L 526.70654 152.84001 C 524.3167 152.70462 521.8936 152.81657 519.49677 152.75255 C 519.6052 148.92376 519.5216 145.07713 519.5286 141.24624 Z M 527.00636 134.32615 C 530.1421 134.30375 534.9113 134.96743 537.53343 133.07787 C 538.477 132.39636 539.1858 131.5763 539.39395 130.3966 C 539.5944 129.26027 539.3009 127.93713 538.633 126.99533 C 537.6622 125.62565 535.98534 125.01026 534.38196 124.7874 C 531.9435 124.44875 529.3521 124.70904 526.8867 124.63662 C 526.9203 127.86506 527.0998 131.09665 527.00636 134.32615 Z" stroke="black" stroke-linecap="butt" stroke-linejoin="round" stroke-width=".5"/>
        </g>
        <g id="Graphic_520">
          <path d="M 430.6803 118.08457 C 433.99235 117.75746 437.53006 118.3655 440.4405 120.00876 C 444.1024 122.0764 445.67534 125.0365 446.75464 128.9664 C 445.67674 129.35229 440.578 130.61665 439.6505 130.23811 C 438.73636 129.86517 438.3403 128.2331 437.8876 127.41865 C 437.12143 126.03883 435.50196 124.6758 433.9273 124.31965 C 431.84565 123.8484 429.05697 124.3095 427.2685 125.40734 C 425.01617 126.78996 423.49956 129.09165 422.93385 131.65012 C 422.22434 134.85757 422.50773 139.98537 424.39483 142.84262 C 425.7358 144.87316 427.71284 146.32365 430.131 146.75782 C 432.39667 147.16505 435.22103 146.83864 437.12983 145.49345 C 439.0313 144.15317 439.9304 142.09428 440.2869 139.87062 C 438.73076 139.81359 433.7177 139.55085 432.4152 139.86887 C 432.1801 139.92624 431.98314 139.97032 431.74594 140.00146 C 431.3835 140.04869 431.54723 140.09102 431.25195 139.86362 C 431.03364 138.42887 431.39504 136.66106 431.45626 135.19308 C 431.4566 134.7904 431.4874 134.41676 431.5441 134.01827 C 432.5772 133.21641 444.9788 134.02632 447.5978 133.58726 C 448.04944 138.76158 447.8308 144.18955 444.3186 148.34405 C 441.8721 151.23839 438.24516 152.8645 434.5007 153.16853 C 429.54887 153.57016 424.29023 152.62625 420.41665 149.3254 C 416.9818 146.39782 415.0933 142.11457 414.74484 137.6571 C 414.34985 132.60417 415.47043 127.35183 418.86226 123.45656 C 421.8731 119.99897 426.19273 118.3648 430.6803 118.08457 Z" fill="#02274c"/>
          <path d="M 430.6803 118.08457 C 433.99235 117.75746 437.53006 118.3655 440.4405 120.00876 C 444.1024 122.0764 445.67534 125.0365 446.75464 128.9664 C 445.67674 129.35229 440.578 130.61665 439.6505 130.23811 C 438.73636 129.86517 438.3403 128.2331 437.8876 127.41865 C 437.12143 126.03883 435.50196 124.6758 433.9273 124.31965 C 431.84565 123.8484 429.05697 124.3095 427.2685 125.40734 C 425.01617 126.78996 423.49956 129.09165 422.93385 131.65012 C 422.22434 134.85757 422.50773 139.98537 424.39483 142.84262 C 425.7358 144.87316 427.71284 146.32365 430.131 146.75782 C 432.39667 147.16505 435.22103 146.83864 437.12983 145.49345 C 439.0313 144.15317 439.9304 142.09428 440.2869 139.87062 C 438.73076 139.81359 433.7177 139.55085 432.4152 139.86887 C 432.1801 139.92624 431.98314 139.97032 431.74594 140.00146 C 431.3835 140.04869 431.54723 140.09102 431.25195 139.86362 C 431.03364 138.42887 431.39504 136.66106 431.45626 135.19308 C 431.4566 134.7904 431.4874 134.41676 431.5441 134.01827 C 432.5772 133.21641 444.9788 134.02632 447.5978 133.58726 C 448.04944 138.76158 447.8308 144.18955 444.3186 148.34405 C 441.8721 151.23839 438.24516 152.8645 434.5007 153.16853 C 429.54887 153.57016 424.29023 152.62625 420.41665 149.3254 C 416.9818 146.39782 415.0933 142.11457 414.74484 137.6571 C 414.34985 132.60417 415.47043 127.35183 418.86226 123.45656 C 421.8731 119.99897 426.19273 118.3648 430.6803 118.08457 Z" stroke="black" stroke-linecap="butt" stroke-linejoin="round" stroke-width=".5"/>
        </g>
        <g id="Graphic_519">
          <path d="M 551.3981 73.40485 C 553.3055 73.38281 557.6283 72.95599 559.2103 73.62071 C 560.636 75.60437 561.55154 79.0018 562.4531 81.35106 C 564.5211 86.70591 566.552 92.07475 568.54545 97.45759 C 569.47816 99.91776 571.7361 104.77651 572.22765 107.0852 C 572.3162 107.50047 572.3081 107.4368 572.5796 107.71283 L 572.4376 108.07143 L 572.7636 107.86222 L 572.55897 108.06898 C 571.2197 108.53324 566.39386 108.5126 564.9458 108.23516 C 563.813 107.04286 562.83445 102.93279 562.2635 101.19927 L 559.87435 101.20836 C 556.02107 101.15169 552.16743 101.15763 548.3145 101.2262 C 547.63614 103.57127 546.61737 105.90759 545.7725 108.20437 C 543.2378 108.34886 540.69576 108.32962 538.1576 108.34117 C 539.5706 105.01231 540.6989 101.483 541.98846 98.09397 Z M 550.48184 94.66751 L 555.1566 94.64407 C 556.7953 94.61713 558.4347 94.63218 560.0727 94.6899 C 559.4909 93.10542 555.8122 82.13123 555.2951 81.58721 C 553.6725 85.91559 552.2822 90.41575 550.48184 94.66751 Z" fill="#02274c"/>
          <path d="M 551.3981 73.40485 C 553.3055 73.38281 557.6283 72.95599 559.2103 73.62071 C 560.636 75.60437 561.55154 79.0018 562.4531 81.35106 C 564.5211 86.70591 566.552 92.07475 568.54545 97.45759 C 569.47816 99.91776 571.7361 104.77651 572.22765 107.0852 C 572.3162 107.50047 572.3081 107.4368 572.5796 107.71283 L 572.4376 108.07143 L 572.7636 107.86222 L 572.55897 108.06898 C 571.2197 108.53324 566.39386 108.5126 564.9458 108.23516 C 563.813 107.04286 562.83445 102.93279 562.2635 101.19927 L 559.87435 101.20836 C 556.02107 101.15169 552.16743 101.15763 548.3145 101.2262 C 547.63614 103.57127 546.61737 105.90759 545.7725 108.20437 C 543.2378 108.34886 540.69576 108.32962 538.1576 108.34117 C 539.5706 105.01231 540.6989 101.483 541.98846 98.09397 Z M 550.48184 94.66751 L 555.1566 94.64407 C 556.7953 94.61713 558.4347 94.63218 560.0727 94.6899 C 559.4909 93.10542 555.8122 82.13123 555.2951 81.58721 C 553.6725 85.91559 552.2822 90.41575 550.48184 94.66751 Z" stroke="black" stroke-linecap="butt" stroke-linejoin="round" stroke-width=".5"/>
        </g>
        <g id="Graphic_518">
          <path d="M 497.4704 118.44107 C 499.62267 118.43198 501.7746 118.40853 503.92586 118.48655 C 506.3741 124.41726 508.4169 130.51135 510.73995 136.49209 C 512.8415 141.90221 515.32967 147.2959 517.0429 152.83547 C 514.4788 152.80503 511.71743 152.60561 509.18135 152.94637 C 508.6954 151.62882 507.35827 146.69345 506.6428 145.97765 C 505.3459 145.7282 503.98953 145.80552 502.6734 145.81637 L 492.8306 145.83666 C 492.16345 148.19887 491.25663 150.5142 490.34737 152.79243 L 483.0683 152.80958 C 483.4507 149.91454 486.2142 143.9555 487.3418 140.92157 C 489.11833 136.07156 490.9253 131.2331 492.7631 126.40617 C 493.73394 123.83615 494.6058 121.13214 495.7925 118.65588 C 496.30326 118.36235 496.89906 118.43967 497.4704 118.44107 Z M 495.02035 139.51481 L 500.1807 139.51481 L 504.61437 139.52111 C 503.0512 135.04824 501.44015 130.59181 499.7815 126.15323 C 498.07667 130.55578 496.6297 135.07308 495.02035 139.51481 Z" fill="#02274c"/>
          <path d="M 497.4704 118.44107 C 499.62267 118.43198 501.7746 118.40853 503.92586 118.48655 C 506.3741 124.41726 508.4169 130.51135 510.73995 136.49209 C 512.8415 141.90221 515.32967 147.2959 517.0429 152.83547 C 514.4788 152.80503 511.71743 152.60561 509.18135 152.94637 C 508.6954 151.62882 507.35827 146.69345 506.6428 145.97765 C 505.3459 145.7282 503.98953 145.80552 502.6734 145.81637 L 492.8306 145.83666 C 492.16345 148.19887 491.25663 150.5142 490.34737 152.79243 L 483.0683 152.80958 C 483.4507 149.91454 486.2142 143.9555 487.3418 140.92157 C 489.11833 136.07156 490.9253 131.2331 492.7631 126.40617 C 493.73394 123.83615 494.6058 121.13214 495.7925 118.65588 C 496.30326 118.36235 496.89906 118.43967 497.4704 118.44107 Z M 495.02035 139.51481 L 500.1807 139.51481 L 504.61437 139.52111 C 503.0512 135.04824 501.44015 130.59181 499.7815 126.15323 C 498.07667 130.55578 496.6297 135.07308 495.02035 139.51481 Z" stroke="black" stroke-linecap="butt" stroke-linejoin="round" stroke-width=".5"/>
        </g>
        <g id="Graphic_517">
          <path d="M 426.82806 72.94479 C 431.0473 72.71284 435.6734 72.92695 439.07466 75.77685 C 441.41973 77.74198 442.00363 80.21998 442.25063 83.11362 C 439.6813 83.22802 437.12913 83.20353 434.56926 83.52574 C 434.22115 81.93216 433.9549 80.58348 432.5415 79.55911 C 431.218 78.600165 429.3967 78.41159 427.8213 78.67223 C 426.06363 78.96296 425.0459 79.67596 424.0394 81.09287 C 424.0317 81.35141 424.02714 81.6096 424.0261 81.86779 C 423.9932 87.93284 436.4945 87.43395 441.01215 92.20525 C 442.57354 93.8548 443.1788 96.11345 443.10637 98.34272 C 443.0196 101.01 441.76713 103.45232 439.8496 105.26526 C 437.0039 107.95598 432.87317 108.83026 429.07237 108.7232 C 426.3743 108.77778 423.61606 108.38105 421.1118 107.34269 C 418.69993 106.3428 416.86635 104.57325 415.86997 102.14772 C 415.47183 101.17793 414.67697 98.84196 415.06355 97.9159 C 415.59253 97.58214 421.11216 96.59205 422.0169 96.54237 C 422.9769 97.00383 423.12767 99.90936 424.38084 101.02224 C 426.1175 102.56439 428.2579 102.49127 430.43364 102.36218 C 432.1322 102.26142 433.7191 101.81186 434.86243 100.43974 C 435.3928 99.80335 435.5681 99.00324 435.46873 98.19053 C 435.03106 94.60874 427.70164 93.35801 424.90247 92.35743 C 422.9748 91.66857 421.00406 90.83662 419.4049 89.53062 C 417.64337 88.09203 416.6022 86.23151 416.3867 83.96306 C 416.1502 81.47316 416.51544 78.80518 418.2021 76.85965 C 420.3061 74.43307 423.6969 73.174295 426.82806 72.94479 Z" fill="#02274c"/>
          <path d="M 426.82806 72.94479 C 431.0473 72.71284 435.6734 72.92695 439.07466 75.77685 C 441.41973 77.74198 442.00363 80.21998 442.25063 83.11362 C 439.6813 83.22802 437.12913 83.20353 434.56926 83.52574 C 434.22115 81.93216 433.9549 80.58348 432.5415 79.55911 C 431.218 78.600165 429.3967 78.41159 427.8213 78.67223 C 426.06363 78.96296 425.0459 79.67596 424.0394 81.09287 C 424.0317 81.35141 424.02714 81.6096 424.0261 81.86779 C 423.9932 87.93284 436.4945 87.43395 441.01215 92.20525 C 442.57354 93.8548 443.1788 96.11345 443.10637 98.34272 C 443.0196 101.01 441.76713 103.45232 439.8496 105.26526 C 437.0039 107.95598 432.87317 108.83026 429.07237 108.7232 C 426.3743 108.77778 423.61606 108.38105 421.1118 107.34269 C 418.69993 106.3428 416.86635 104.57325 415.86997 102.14772 C 415.47183 101.17793 414.67697 98.84196 415.06355 97.9159 C 415.59253 97.58214 421.11216 96.59205 422.0169 96.54237 C 422.9769 97.00383 423.12767 99.90936 424.38084 101.02224 C 426.1175 102.56439 428.2579 102.49127 430.43364 102.36218 C 432.1322 102.26142 433.7191 101.81186 434.86243 100.43974 C 435.3928 99.80335 435.5681 99.00324 435.46873 98.19053 C 435.03106 94.60874 427.70164 93.35801 424.90247 92.35743 C 422.9748 91.66857 421.00406 90.83662 419.4049 89.53062 C 417.64337 88.09203 416.6022 86.23151 416.3867 83.96306 C 416.1502 81.47316 416.51544 78.80518 418.2021 76.85965 C 420.3061 74.43307 423.6969 73.174295 426.82806 72.94479 Z" stroke="black" stroke-linecap="butt" stroke-linejoin="round" stroke-width=".5"/>
        </g>
        <g id="Graphic_516">
          <path d="M 447.42285 73.42934 L 454.7666 73.42689 C 454.74213 74.887525 454.90516 76.36565 454.9489 77.82699 C 455.0185 80.16891 454.97513 82.52132 454.97303 84.86463 C 454.97023 87.84048 454.598 94.48139 455.05735 97.11403 C 455.262 98.28884 455.678 99.25758 456.50504 100.12907 C 457.92754 101.62784 460.09873 102.34783 462.1272 102.40486 C 464.30186 102.46574 466.72284 101.93046 468.3105 100.36277 C 469.1935 99.49094 469.7099 98.44033 469.9894 97.24173 C 470.6867 94.24909 470.3361 90.64 470.3365 87.57319 C 470.32353 82.85193 470.3361 78.13066 470.37426 73.40975 C 472.7816 73.54409 475.23896 73.44403 477.65225 73.436685 L 477.6379 79.479695 C 477.64595 83.94172 478.15184 95.53725 477.0687 99.42621 C 476.54707 101.29898 475.4478 103.21127 474.10894 104.62118 C 471.2181 107.6649 467.0923 108.7246 463.0207 108.78863 C 458.75984 108.8558 454.55006 108.11656 451.39334 105.02036 C 449.7679 103.42678 448.5102 101.27029 447.94484 99.06411 C 447.01213 95.42424 447.43475 91.20397 447.43755 87.46019 Z" fill="#02274c"/>
          <path d="M 447.42285 73.42934 L 454.7666 73.42689 C 454.74213 74.887525 454.90516 76.36565 454.9489 77.82699 C 455.0185 80.16891 454.97513 82.52132 454.97303 84.86463 C 454.97023 87.84048 454.598 94.48139 455.05735 97.11403 C 455.262 98.28884 455.678 99.25758 456.50504 100.12907 C 457.92754 101.62784 460.09873 102.34783 462.1272 102.40486 C 464.30186 102.46574 466.72284 101.93046 468.3105 100.36277 C 469.1935 99.49094 469.7099 98.44033 469.9894 97.24173 C 470.6867 94.24909 470.3361 90.64 470.3365 87.57319 C 470.32353 82.85193 470.3361 78.13066 470.37426 73.40975 C 472.7816 73.54409 475.23896 73.44403 477.65225 73.436685 L 477.6379 79.479695 C 477.64595 83.94172 478.15184 95.53725 477.0687 99.42621 C 476.54707 101.29898 475.4478 103.21127 474.10894 104.62118 C 471.2181 107.6649 467.0923 108.7246 463.0207 108.78863 C 458.75984 108.8558 454.55006 108.11656 451.39334 105.02036 C 449.7679 103.42678 448.5102 101.27029 447.94484 99.06411 C 447.01213 95.42424 447.43475 91.20397 447.43755 87.46019 Z" stroke="black" stroke-linecap="butt" stroke-linejoin="round" stroke-width=".5"/>
        </g>
        <g id="Graphic_515">
          <path d="M 452.3565 118.50859 C 454.7883 118.43198 457.21734 118.55687 459.6502 118.44562 C 459.6628 125.35277 459.8657 132.24382 459.6929 139.14292 C 459.639 141.29452 460.0648 143.40763 461.643 144.98127 C 463.17813 146.51152 465.342 146.9422 467.43654 146.9142 C 469.4447 146.88727 471.6533 146.2103 473.05833 144.71573 C 473.94766 143.76938 474.37063 142.58582 474.58824 141.3218 C 475.0322 138.74024 474.79255 135.84066 474.7929 133.21466 C 474.8041 128.32617 474.7831 123.43732 474.7303 118.54918 C 477.1628 118.43547 479.6149 118.46906 482.0506 118.44947 C 482.0772 120.56363 482.0856 122.67779 482.07614 124.7923 C 482.1965 125.52734 482.21083 126.29282 482.2255 127.03731 C 482.25317 129.37782 482.2675 131.71834 482.26856 134.05886 C 482.27136 139.34374 482.341 145.20762 478.3824 149.25507 C 475.5549 152.14626 471.73554 153.22205 467.7927 153.23045 C 463.2985 153.2399 459.2297 152.50346 455.9547 149.1823 C 454.47554 147.70977 453.40674 145.8762 452.8543 143.86349 C 451.90727 140.30583 452.32395 136.0824 452.3264 132.41105 Z" fill="#02274c"/>
          <path d="M 452.3565 118.50859 C 454.7883 118.43198 457.21734 118.55687 459.6502 118.44562 C 459.6628 125.35277 459.8657 132.24382 459.6929 139.14292 C 459.639 141.29452 460.0648 143.40763 461.643 144.98127 C 463.17813 146.51152 465.342 146.9422 467.43654 146.9142 C 469.4447 146.88727 471.6533 146.2103 473.05833 144.71573 C 473.94766 143.76938 474.37063 142.58582 474.58824 141.3218 C 475.0322 138.74024 474.79255 135.84066 474.7929 133.21466 C 474.8041 128.32617 474.7831 123.43732 474.7303 118.54918 C 477.1628 118.43547 479.6149 118.46906 482.0506 118.44947 C 482.0772 120.56363 482.0856 122.67779 482.07614 124.7923 C 482.1965 125.52734 482.21083 126.29282 482.2255 127.03731 C 482.25317 129.37782 482.2675 131.71834 482.26856 134.05886 C 482.27136 139.34374 482.341 145.20762 478.3824 149.25507 C 475.5549 152.14626 471.73554 153.22205 467.7927 153.23045 C 463.2985 153.2399 459.2297 152.50346 455.9547 149.1823 C 454.47554 147.70977 453.40674 145.8762 452.8543 143.86349 C 451.90727 140.30583 452.32395 136.0824 452.3264 132.41105 Z" stroke="black" stroke-linecap="butt" stroke-linejoin="round" stroke-width=".5"/>
        </g>
        <g id="Graphic_514">
          <path d="M 589.1889 72.79121 C 592.7805 72.78771 596.5676 73.45138 599.58616 75.50851 C 602.72084 77.64507 604.1262 80.55164 604.81366 84.19047 C 602.6449 84.36504 600.46674 85.27781 598.3354 85.31979 C 596.8171 85.34988 596.0943 81.3724 593.3486 79.932755 C 591.4514 78.93812 588.7274 78.90594 586.7028 79.54967 C 584.5526 80.23328 583.0129 81.81042 582.02983 83.80248 C 580.2459 87.41646 580.19905 92.7965 581.53724 96.55532 C 582.3307 98.78423 583.7497 100.86061 585.9713 101.85279 C 588.218 102.85617 591.3954 102.7974 593.67504 101.84999 C 596.0278 100.8718 596.8101 98.82097 597.70535 96.62844 C 600.2981 96.86739 602.8839 97.38657 605.4546 97.8015 C 605.0145 99.97968 604.1888 101.8325 602.80585 103.57512 C 600.1148 106.9659 596.15725 108.35621 591.9597 108.80962 C 587.45116 109.29696 582.14634 107.8993 578.62716 105.00147 C 574.97785 101.99728 573.2538 97.25922 572.81856 92.6667 C 572.32946 87.50042 573.4182 82.23934 576.8237 78.20938 C 580.0486 74.39353 584.39064 73.197735 589.1889 72.79121 Z" fill="#02274c"/>
          <path d="M 589.1889 72.79121 C 592.7805 72.78771 596.5676 73.45138 599.58616 75.50851 C 602.72084 77.64507 604.1262 80.55164 604.81366 84.19047 C 602.6449 84.36504 600.46674 85.27781 598.3354 85.31979 C 596.8171 85.34988 596.0943 81.3724 593.3486 79.932755 C 591.4514 78.93812 588.7274 78.90594 586.7028 79.54967 C 584.5526 80.23328 583.0129 81.81042 582.02983 83.80248 C 580.2459 87.41646 580.19905 92.7965 581.53724 96.55532 C 582.3307 98.78423 583.7497 100.86061 585.9713 101.85279 C 588.218 102.85617 591.3954 102.7974 593.67504 101.84999 C 596.0278 100.8718 596.8101 98.82097 597.70535 96.62844 C 600.2981 96.86739 602.8839 97.38657 605.4546 97.8015 C 605.0145 99.97968 604.1888 101.8325 602.80585 103.57512 C 600.1148 106.9659 596.15725 108.35621 591.9597 108.80962 C 587.45116 109.29696 582.14634 107.8993 578.62716 105.00147 C 574.97785 101.99728 573.2538 97.25922 572.81856 92.6667 C 572.32946 87.50042 573.4182 82.23934 576.8237 78.20938 C 580.0486 74.39353 584.39064 73.197735 589.1889 72.79121 Z" stroke="black" stroke-linecap="butt" stroke-linejoin="round" stroke-width=".5"/>
        </g>
        <g id="Graphic_513">
          <path d="M 609.4349 73.436685 C 617.11274 73.24357 624.8298 73.37546 632.5119 73.38561 L 632.5045 79.68226 C 627.2508 79.66267 621.99704 79.670365 616.74365 79.70535 C 616.6936 82.43805 616.72265 85.1774 616.71286 87.9108 C 621.2564 87.98952 625.80064 87.99372 630.3445 87.92305 C 630.1983 90.07744 630.4551 92.23149 630.2364 94.39533 C 625.7968 94.36384 621.2025 94.1032 616.7825 94.43486 C 616.6492 96.8408 617.1792 99.4591 616.8098 101.79437 L 632.5262 101.81571 L 632.5479 108.24391 C 627.58594 108.42688 622.603 108.39015 617.6382 108.36006 C 614.9062 108.34326 612.1539 108.23026 609.4258 108.37965 Z" fill="#02274c"/>
          <path d="M 609.4349 73.436685 C 617.11274 73.24357 624.8298 73.37546 632.5119 73.38561 L 632.5045 79.68226 C 627.2508 79.66267 621.99704 79.670365 616.74365 79.70535 C 616.6936 82.43805 616.72265 85.1774 616.71286 87.9108 C 621.2564 87.98952 625.80064 87.99372 630.3445 87.92305 C 630.1983 90.07744 630.4551 92.23149 630.2364 94.39533 C 625.7968 94.36384 621.2025 94.1032 616.7825 94.43486 C 616.6492 96.8408 617.1792 99.4591 616.8098 101.79437 L 632.5262 101.81571 L 632.5479 108.24391 C 627.58594 108.42688 622.603 108.39015 617.6382 108.36006 C 614.9062 108.34326 612.1539 108.23026 609.4258 108.37965 Z" stroke="black" stroke-linecap="butt" stroke-linejoin="round" stroke-width=".5"/>
        </g>
        <g id="Graphic_512">
          <path d="M 516.735 73.4108 C 524.4811 73.30969 532.24296 73.37231 539.98975 73.41534 C 540.0629 75.50082 539.99185 77.60973 539.9768 79.6966 C 538.0925 79.63643 524.8359 79.39398 524.1246 79.85334 C 524.4671 82.52272 524.514 86.02265 524.0053 88.66229 C 523.9822 88.78159 523.96544 88.90229 523.9455 89.02193 C 524.99785 89.49214 536.0602 89.14823 538.23664 89.18916 C 538.29227 91.36105 538.3881 93.53189 538.2006 95.69993 C 533.54546 95.79999 528.82734 95.82448 524.1743 95.66249 C 524.2296 97.39881 524.07354 99.11834 524.0515 100.85256 C 524.02 103.30258 524.125 105.78094 523.9266 108.22292 C 521.6613 108.22082 519.0507 107.98816 516.8351 108.41638 C 516.52406 104.26853 516.7116 99.99262 516.71124 95.82937 Z" fill="#02274c"/>
          <path d="M 516.735 73.4108 C 524.4811 73.30969 532.24296 73.37231 539.98975 73.41534 C 540.0629 75.50082 539.99185 77.60973 539.9768 79.6966 C 538.0925 79.63643 524.8359 79.39398 524.1246 79.85334 C 524.4671 82.52272 524.514 86.02265 524.0053 88.66229 C 523.9822 88.78159 523.96544 88.90229 523.9455 89.02193 C 524.99785 89.49214 536.0602 89.14823 538.23664 89.18916 C 538.29227 91.36105 538.3881 93.53189 538.2006 95.69993 C 533.54546 95.79999 528.82734 95.82448 524.1743 95.66249 C 524.2296 97.39881 524.07354 99.11834 524.0515 100.85256 C 524.02 103.30258 524.125 105.78094 523.9266 108.22292 C 521.6613 108.22082 519.0507 107.98816 516.8351 108.41638 C 516.52406 104.26853 516.7116 99.99262 516.71124 95.82937 Z" stroke="black" stroke-linecap="butt" stroke-linejoin="round" stroke-width=".5"/>
        </g>
      </g>
    </g>
  </g>
</svg>
